<svg width="56" height="57" viewBox="0 0 56 57" fill="none" xmlns="http://www.w3.org/2000/svg">
<g clip-path="url(#clip0_166_4)">
<g clip-path="url(#clip1_166_4)">
<path d="M54.8292 14.6771C54.184 12.2171 52.2891 10.2839 49.8782 9.6254C45.5129 8.43066 28 8.43066 28 8.43066C28 8.43066 10.4873 8.43066 6.12184 9.6254C3.71092 10.2839 1.81627 12.2171 1.1709 14.6771C3.50493e-07 19.1315 0 28.4307 0 28.4307C0 28.4307 3.50493e-07 37.7299 1.1709 42.1843C1.81627 44.6443 3.71092 46.5775 6.12184 47.2359C10.4873 48.4307 28 48.4307 28 48.4307C28 48.4307 45.5129 48.4307 49.8782 47.2359C52.2891 46.5775 54.184 44.6443 54.8292 42.1843C56.0002 37.7299 56.0002 28.4307 56.0002 28.4307C56.0002 28.4307 55.9955 19.1315 54.8292 14.6771Z" fill="#FFC848"/>
<path d="M22.3947 37.0015L36.9434 28.4315L22.3947 19.8613V37.0015Z" fill="black"/>
</g>
</g>
<defs>
<clipPath id="clip0_166_4">
<rect width="56" height="40" fill="white" transform="translate(0 8.43066)"/>
</clipPath>
<clipPath id="clip1_166_4">
<rect width="56" height="40" fill="white" transform="translate(0 8.43066)"/>
</clipPath>
</defs>
</svg>
