<svg width="56" height="56" viewBox="0 0 56 56" fill="none" xmlns="http://www.w3.org/2000/svg">
<g clip-path="url(#clip0_166_4)">
<g clip-path="url(#clip1_166_4)">
<path d="M54.8292 14.2465C54.184 11.7865 52.2891 9.85325 49.8782 9.19473C45.5129 8 28 8 28 8C28 8 10.4873 8 6.12184 9.19473C3.71092 9.85325 1.81627 11.7865 1.1709 14.2465C3.50493e-07 18.7008 0 28 0 28C0 28 3.50493e-07 37.2992 1.1709 41.7536C1.81627 44.2136 3.71092 46.1468 6.12184 46.8052C10.4873 48 28 48 28 48C28 48 45.5129 48 49.8782 46.8052C52.2891 46.1468 54.184 44.2136 54.8292 41.7536C56.0002 37.2992 56.0002 28 56.0002 28C56.0002 28 55.9955 18.7008 54.8292 14.2465Z" fill="#FFF952"/>
<path d="M22.3947 36.5708L36.9434 28.0008L22.3947 19.4307V36.5708Z" fill="black"/>
</g>
</g>
<defs>
<clipPath id="clip0_166_4">
<rect width="56" height="40" fill="white" transform="translate(0 8)"/>
</clipPath>
<clipPath id="clip1_166_4">
<rect width="56" height="40" fill="white" transform="translate(0 8)"/>
</clipPath>
</defs>
</svg>
